<svg width="143" height="32" viewBox="0 0 143 32" fill="none" xmlns="http://www.w3.org/2000/svg">
<path d="M28.3372 28.2243C28.3554 28.1698 28.3736 28.1152 28.3901 28.0623C28.8631 26.5195 28.9805 24.8428 28.825 23.1165C28.8118 23.1115 22.6026 20.6758 18.7415 20.6758C14.8804 20.6758 11.3749 22.2417 8.99042 23.0123C6.77463 23.7283 2.11156 23.9366 0.024751 20.8163C-0.0364312 22.3955 0.0280573 23.3529 0.0859324 23.8473C0.805237 30.0681 4.52247 31.6968 7.57662 31.9482C11.9024 32.436 13.9792 29.3752 18.7498 29.3752C22.0503 29.3752 24.0627 30.8403 26.4207 31.5811C27.3368 30.5294 27.9271 29.4 28.3042 28.3219C28.3157 28.2888 28.3257 28.2558 28.3372 28.2227V28.2243Z" fill="url(#paint0_linear_1025_11375)"/>
<path d="M28.0072 3.41211C27.4251 3.53613 22.4082 3.32116 18.7422 5.699C24.9282 9.44765 33.0439 24.1793 26.4214 31.5807C27.4714 31.9114 28.5909 32.0983 29.9236 31.9478C32.9761 31.6965 36.6934 30.0677 37.4143 23.847C38.4577 14.8267 31.9427 6.78374 28.0072 3.41211Z" fill="url(#paint1_linear_1025_11375)"/>
<path d="M0.0117188 20.8038C2.09853 23.9241 6.77483 23.7274 8.99062 23.0114C10.8939 14.1366 13.9695 8.79725 18.7417 5.70011C22.4143 3.31731 27.4412 3.53724 28.01 3.41156C24.1754 0.0978043 20.7095 -0.00637137 18.75 0.00024292C16.7938 -0.00637137 14.8261 0.411984 13.0882 1.14452C11.9919 1.60752 10.9881 2.19288 10.1382 2.87911C6.77152 5.59924 0.535901 12.5641 0.0117188 20.8022C0.0117188 20.8055 0.0117188 20.8088 0.0117188 20.8022V20.8038Z" fill="url(#paint2_linear_1025_11375)"/>
<path d="M62.483 7.92164C63.7976 9.24946 64.4557 11.1924 64.4557 13.7488V25.2164H62.7426C62.0216 25.2164 61.4644 25.0113 61.0675 24.6012C60.6707 24.1911 60.4458 23.6653 60.3978 23.0188C59.4305 23.8125 58.4615 24.4342 57.4942 24.8807C56.5268 25.3272 55.4586 25.5504 54.2928 25.5504C52.5053 25.5504 51.0717 25.0543 49.9919 24.0605C48.9121 23.0684 48.373 21.6529 48.373 19.8158C48.373 17.9787 49.0179 16.459 50.3094 15.4041C51.5992 14.3491 53.4247 13.8216 55.7827 13.8216C57.1982 13.8216 58.736 14.0448 60.3995 14.4913V13.6347C60.3995 12.2441 60.0274 11.2205 59.2833 10.5624C58.5392 9.90428 57.3966 9.57522 55.8588 9.57522C54.741 9.57522 53.6926 9.67443 52.712 9.87286C51.7315 10.0713 50.7195 10.4185 49.6777 10.9146V7.60085C51.7381 6.48469 54.0828 5.92578 56.7153 5.92578C59.3478 5.92578 61.17 6.59052 62.4863 7.91834L62.483 7.92164ZM55.4454 22.0514C56.1399 22.0514 56.9154 21.896 57.772 21.5851C58.6285 21.2759 59.5032 20.8344 60.3962 20.2639V17.1734C59.1791 16.9502 57.8397 16.8377 56.3747 16.8377C55.0088 16.8377 54.0101 17.0609 53.3768 17.5074C52.7434 17.9539 52.4276 18.6252 52.4276 19.5182C52.4276 21.2064 53.433 22.0498 55.4437 22.0498L55.4454 22.0514Z" fill="#170054"/>
<path d="M85.6411 6.375V25.2142H83.4816C82.1901 25.2142 81.446 24.5197 81.2476 23.129C80.3282 23.9244 79.3791 24.5445 78.3985 24.9909C77.4179 25.4374 76.3448 25.6606 75.1773 25.6606C73.2162 25.6606 71.6833 25.0223 70.5788 23.7425C69.4742 22.4643 68.9219 20.647 68.9219 18.2873V6.375H73.3898V17.7681C73.3898 20.4486 74.4944 21.7896 76.7036 21.7896C78.119 21.7896 79.6205 21.1447 81.2079 19.8533V6.375H85.6378H85.6411Z" fill="#170054"/>
<path d="M102.544 6.26517V10.2122C101.726 10.0138 100.869 9.91461 99.9745 9.91461C98.9328 9.91461 98.0134 10.07 97.2197 10.3793C96.426 10.6901 95.6554 11.1432 94.9113 11.7385V25.2168H90.4434V6.37596H92.6029C93.8696 6.37596 94.6252 7.04566 94.8749 8.38671C96.6872 6.79928 98.5475 6.00391 100.459 6.00391C101.228 6.00391 101.924 6.09154 102.544 6.26517Z" fill="#170054"/>
<path d="M121.411 16.9888H108.752C108.951 18.5779 109.516 19.7999 110.446 20.6564C111.377 21.513 112.673 21.9412 114.337 21.9412C115.478 21.9412 116.528 21.842 117.483 21.6436C118.439 21.4452 119.476 21.0847 120.592 20.5638V23.952C118.656 25.0946 116.361 25.6651 113.703 25.6651C111.891 25.6651 110.284 25.2682 108.881 24.4729C107.479 23.6791 106.386 22.5365 105.604 21.0483C104.822 19.5584 104.432 17.809 104.432 15.7982C104.432 13.7875 104.842 12.0694 105.66 10.5663C106.479 9.06486 107.572 7.91728 108.936 7.12191C110.3 6.3282 111.765 5.92969 113.33 5.92969C115.688 5.92969 117.624 6.68041 119.139 8.18185C120.653 9.6833 121.411 11.9983 121.411 15.1252V16.9871V16.9888ZM117.315 13.9363C117.265 12.4464 116.88 11.3303 116.16 10.5845C115.439 9.84039 114.497 9.46833 113.331 9.46833C112.165 9.46833 111.14 9.83543 110.335 10.5663C109.528 11.2988 109.014 12.4216 108.79 13.9363H117.316H117.315Z" fill="#170054"/>
<path d="M140.534 7.84783C141.65 9.12604 142.209 10.945 142.209 13.303V25.217H137.741V13.8238C137.741 11.1434 136.623 9.80236 134.389 9.80236C132.974 9.80236 131.461 10.4357 129.847 11.7007V25.2153H125.379V6.37615H127.538C128.208 6.37615 128.731 6.55639 129.103 6.91687C129.475 7.27735 129.711 7.78004 129.81 8.42493C130.753 7.63121 131.709 7.01609 132.678 6.5812C133.645 6.14796 134.713 5.92969 135.879 5.92969C137.865 5.92969 139.416 6.56962 140.534 7.84783Z" fill="#170054"/>
<defs>
<linearGradient id="paint0_linear_1025_11375" x1="-5.27869e-05" y1="26.3376" x2="31.7717" y2="26.3376" gradientUnits="userSpaceOnUse">
<stop offset="0.29" stop-color="#E52397"/>
<stop offset="0.39" stop-color="#E52397" stop-opacity="0.88"/>
<stop offset="0.59" stop-color="#E52397" stop-opacity="0.57"/>
<stop offset="0.82" stop-color="#E52397" stop-opacity="0.2"/>
<stop offset="1" stop-color="#E52397" stop-opacity="0.1"/>
</linearGradient>
<linearGradient id="paint1_linear_1025_11375" x1="33.1134" y1="27.8833" x2="22.767" y2="1.45097" gradientUnits="userSpaceOnUse">
<stop offset="0.3" stop-color="#E52397"/>
<stop offset="0.45" stop-color="#E52397" stop-opacity="0.75"/>
<stop offset="0.64" stop-color="#E52397" stop-opacity="0.46"/>
<stop offset="0.77" stop-color="#E52397" stop-opacity="0.27"/>
<stop offset="0.84" stop-color="#E52397" stop-opacity="0.2"/>
<stop offset="1" stop-color="#E52397" stop-opacity="0.1"/>
</linearGradient>
<linearGradient id="paint2_linear_1025_11375" x1="19.8546" y1="1.1164" x2="3.4032" y2="24.493" gradientUnits="userSpaceOnUse">
<stop offset="0.19" stop-color="#E52397"/>
<stop offset="0.31" stop-color="#E52397" stop-opacity="0.88"/>
<stop offset="0.55" stop-color="#E52397" stop-opacity="0.57"/>
<stop offset="0.82" stop-color="#E52397" stop-opacity="0.2"/>
<stop offset="1" stop-color="#E52397" stop-opacity="0.1"/>
</linearGradient>
</defs>
</svg>
